# xmcd
#
# Track frame offsets:
#	150
#	9895
#	22602
#	36207
#	45983
#	54391
#	65455
#	74487
#	87632
#	97371
#	109237
#	118178
#	129957
#	142248
#	153410
#	166152
#	179357
#	191489
#
# Disc length: 2702 seconds
#
# Revision: 0
# Processed by: cddbd v1.5.1PL2 Copyright (c) Steve Scherf et al.
# Submitted via: audiograbber 1.82.02
#
DISCID=f50a8c12
DTITLE=Les Paul and Mary Ford - This Is Gold D2 of 3
DYEAR=2005
DGENRE=Pop
TTITLE0=Les Paul and Mary Ford - Tiger Rag
TTITLE1=Les Paul and Mary Ford - Vaya Con Dios
TTITLE2=Les Paul and Trio - Begin The Beguine
TTITLE3=Les Paul and Mary Ford - In The Good Old Summertime
TTITLE4=Les Paul - Meet Mr. Callaghan
TTITLE5=Les Paul and Mary Ford - My Baby's Comin' Home
TTITLE6=Les Paul and Mary Ford - I'm A Fool To Care
TTITLE7=Les Paul and Trio and Delta Rhythm Boys - What Would It Take
TTITLE8=Les Paul and Mary Ford - Whither Thou Goest
TTITLE9=Les Paul - Kangaroo
TTITLE10=Les Paul and Mary Ford - Don' Cha Hear Them Bells
TTITLE11=Les Paul and Trio - Blue Skies
TTITLE12=Les Paul and Trio - My Isle Of Golden Dreams
TTITLE13=Les Paul and Trio and Helen Forrest - Baby, What You Do To Me
TTITLE14=Les Paul and Mary Ford - Cryin'
TTITLE15=Les Paul and Andrews Sisters - Rumours Are Flying
TTITLE16=Les Paul and Trio and Bing Crosby - Pretending
TTITLE17=Les Paul and Trio - Guitar Boogie
EXTD=BX 902633
EXTT0=
EXTT1=May God Be With You
EXTT2=
EXTT3=
EXTT4=
EXTT5=
EXTT6=
EXTT7=
EXTT8=
EXTT9=
EXTT10=
EXTT11=
EXTT12=
EXTT13=
EXTT14=
EXTT15=
EXTT16=
EXTT17=
PLAYORDER=
